<svg width="600" height="600" viewBox="0 0 600 600" fill="none" xmlns="http://www.w3.org/2000/svg">
<g clip-path="url(#clip0_74_42)">
<rect width="600" height="600" rx="136" fill="#111113"/>
<path d="M405.169 364.62C405.169 361.253 404.357 358.291 402.732 355.732C401.243 353.173 398.535 350.749 394.609 348.46C390.548 346.305 385.2 344.286 378.566 342.4C371.932 340.515 363.539 338.63 353.385 336.744C340.523 334.186 328.745 331.021 318.05 327.251C307.49 323.345 298.419 318.632 290.837 313.111C283.256 307.724 277.299 301.462 272.967 294.325C268.77 287.188 266.671 278.974 266.671 269.682C266.671 260.659 268.837 252.041 273.17 243.826C277.502 235.612 283.73 228.407 291.853 222.213C299.976 216.018 309.859 211.103 321.502 207.467C333.145 203.831 346.277 202.013 360.899 202.013C376.197 202.013 389.939 203.831 402.123 207.467C414.308 210.968 424.665 215.816 433.194 222.011C441.588 228.34 448.018 235.814 452.486 244.432C456.954 253.051 459.188 262.41 459.188 272.51H402.732C402.732 268.874 402.123 265.507 400.905 262.41C399.686 259.178 397.859 256.283 395.422 253.724C392.037 250.357 387.434 247.664 381.612 245.644C375.926 243.624 369.022 242.614 360.899 242.614C353.994 242.614 347.969 243.288 342.825 244.634C337.68 245.981 333.483 247.866 330.234 250.29C327.256 252.445 324.954 255.003 323.329 257.966C321.84 260.794 321.096 263.824 321.096 267.056C321.096 270.288 321.773 273.318 323.126 276.146C324.48 278.839 326.917 281.263 330.437 283.417C333.822 285.707 338.493 287.794 344.449 289.679C350.406 291.43 357.988 292.979 367.194 294.325C380.462 296.48 392.782 299.24 404.154 302.607C415.526 305.974 425.342 310.283 433.6 315.535C441.858 320.921 448.289 327.453 452.892 335.128C457.631 342.67 460 351.692 460 362.196C460 371.892 457.631 380.847 452.892 389.061C448.289 397.141 441.723 404.144 433.194 410.069C424.529 415.994 414.105 420.64 401.92 424.007C389.736 427.238 376.129 428.854 361.102 428.854C344.585 428.854 329.963 426.7 317.237 422.391C304.646 418.081 294.086 412.425 285.557 405.423C277.028 398.555 270.53 390.745 266.062 381.991C261.73 373.104 259.563 364.216 259.563 355.328H313.379C313.785 361.253 315.41 366.37 318.253 370.68C321.096 374.854 324.751 378.221 329.219 380.779C333.686 383.473 338.763 385.425 344.449 386.637C350.271 387.849 356.228 388.455 362.32 388.455C369.631 388.455 375.994 387.849 381.409 386.637C386.96 385.291 391.496 383.54 395.016 381.385C398.4 379.231 400.905 376.74 402.529 373.912C404.289 371.084 405.169 367.986 405.169 364.62Z" fill="white"/>
<path d="M172.196 449.258H120L229.833 130H282.03L172.196 449.258Z" fill="#B0B4BA"/>
</g>
<defs>
<clipPath id="clip0_74_42">
<rect width="600" height="600" fill="white"/>
</clipPath>
</defs>
</svg>
